G04 #@! TF.GenerationSoftware,KiCad,Pcbnew,5.1.5-52549c5~84~ubuntu18.04.1*
G04 #@! TF.CreationDate,2020-02-20T15:49:27+01:00*
G04 #@! TF.ProjectId,ICS-43434-PCB,4943532d-3433-4343-9334-2d5043422e6b,rev?*
G04 #@! TF.SameCoordinates,Original*
G04 #@! TF.FileFunction,Copper,L2,Bot*
G04 #@! TF.FilePolarity,Positive*
%FSLAX46Y46*%
G04 Gerber Fmt 4.6, Leading zero omitted, Abs format (unit mm)*
G04 Created by KiCad (PCBNEW 5.1.5-52549c5~84~ubuntu18.04.1) date 2020-02-20 15:49:27*
%MOMM*%
%LPD*%
G04 APERTURE LIST*
%ADD10C,1.700000*%
%ADD11C,0.600000*%
%ADD12C,0.200000*%
G04 APERTURE END LIST*
D10*
X98651416Y-96662138D03*
X96617107Y-101231273D03*
X96711236Y-98535748D03*
X103382893Y-101231273D03*
X103288764Y-98535748D03*
X101348584Y-96662138D03*
D11*
X100015500Y-98300000D03*
D12*
G36*
X100663668Y-94817320D02*
G01*
X101529999Y-95004029D01*
X102352315Y-95334462D01*
X103106958Y-95799115D01*
X103772221Y-96384619D01*
X104328963Y-97074132D01*
X104761169Y-97847816D01*
X105056405Y-98683415D01*
X105206177Y-99556889D01*
X105206177Y-100443111D01*
X105056405Y-101316585D01*
X104761169Y-102152184D01*
X104328963Y-102925868D01*
X103772221Y-103615381D01*
X103106958Y-104200885D01*
X102352315Y-104665538D01*
X101529999Y-104995971D01*
X100663668Y-105182680D01*
X99778245Y-105220292D01*
X98899201Y-105107726D01*
X98051825Y-104848220D01*
X97260494Y-104449240D01*
X96547975Y-103922263D01*
X95934763Y-103282449D01*
X95438501Y-102548206D01*
X95073465Y-101740655D01*
X94908777Y-101108159D01*
X95367107Y-101108159D01*
X95367107Y-101354387D01*
X95415144Y-101595884D01*
X95509372Y-101823370D01*
X95646169Y-102028101D01*
X95820279Y-102202211D01*
X96025010Y-102339008D01*
X96252496Y-102433236D01*
X96493993Y-102481273D01*
X96740221Y-102481273D01*
X96981718Y-102433236D01*
X97209204Y-102339008D01*
X97413935Y-102202211D01*
X97588045Y-102028101D01*
X97724842Y-101823370D01*
X97819070Y-101595884D01*
X97867107Y-101354387D01*
X97867107Y-101108159D01*
X102132893Y-101108159D01*
X102132893Y-101354387D01*
X102180930Y-101595884D01*
X102275158Y-101823370D01*
X102411955Y-102028101D01*
X102586065Y-102202211D01*
X102790796Y-102339008D01*
X103018282Y-102433236D01*
X103259779Y-102481273D01*
X103506007Y-102481273D01*
X103747504Y-102433236D01*
X103974990Y-102339008D01*
X104179721Y-102202211D01*
X104353831Y-102028101D01*
X104490628Y-101823370D01*
X104584856Y-101595884D01*
X104632893Y-101354387D01*
X104632893Y-101108159D01*
X104584856Y-100866662D01*
X104490628Y-100639176D01*
X104353831Y-100434445D01*
X104179721Y-100260335D01*
X103974990Y-100123538D01*
X103747504Y-100029310D01*
X103506007Y-99981273D01*
X103259779Y-99981273D01*
X103018282Y-100029310D01*
X102790796Y-100123538D01*
X102586065Y-100260335D01*
X102411955Y-100434445D01*
X102275158Y-100639176D01*
X102180930Y-100866662D01*
X102132893Y-101108159D01*
X97867107Y-101108159D01*
X97819070Y-100866662D01*
X97724842Y-100639176D01*
X97588045Y-100434445D01*
X97413935Y-100260335D01*
X97209204Y-100123538D01*
X96981718Y-100029310D01*
X96740221Y-99981273D01*
X96493993Y-99981273D01*
X96252496Y-100029310D01*
X96025010Y-100123538D01*
X95820279Y-100260335D01*
X95646169Y-100434445D01*
X95509372Y-100639176D01*
X95415144Y-100866662D01*
X95367107Y-101108159D01*
X94908777Y-101108159D01*
X94850157Y-100883029D01*
X94775000Y-100000000D01*
X94781974Y-99918056D01*
X99300000Y-99918056D01*
X99300000Y-100055944D01*
X99326901Y-100191182D01*
X99379668Y-100318574D01*
X99456274Y-100433224D01*
X99553776Y-100530726D01*
X99668426Y-100607332D01*
X99795818Y-100660099D01*
X99931056Y-100687000D01*
X100068944Y-100687000D01*
X100204182Y-100660099D01*
X100331574Y-100607332D01*
X100446224Y-100530726D01*
X100543726Y-100433224D01*
X100620332Y-100318574D01*
X100673099Y-100191182D01*
X100700000Y-100055944D01*
X100700000Y-99918056D01*
X100673099Y-99782818D01*
X100620332Y-99655426D01*
X100543726Y-99540776D01*
X100446224Y-99443274D01*
X100331574Y-99366668D01*
X100204182Y-99313901D01*
X100068944Y-99287000D01*
X99931056Y-99287000D01*
X99795818Y-99313901D01*
X99668426Y-99366668D01*
X99553776Y-99443274D01*
X99456274Y-99540776D01*
X99379668Y-99655426D01*
X99326901Y-99782818D01*
X99300000Y-99918056D01*
X94781974Y-99918056D01*
X94834293Y-99303349D01*
X95950706Y-99303349D01*
X96036064Y-99473549D01*
X96231994Y-99587249D01*
X96446340Y-99660540D01*
X96670866Y-99690606D01*
X96896943Y-99676291D01*
X97115884Y-99618147D01*
X97319274Y-99518406D01*
X97386408Y-99473549D01*
X97471766Y-99303349D01*
X96711236Y-98542819D01*
X95950706Y-99303349D01*
X94834293Y-99303349D01*
X94850157Y-99116971D01*
X95012006Y-98495378D01*
X95556378Y-98495378D01*
X95570693Y-98721455D01*
X95628837Y-98940396D01*
X95728578Y-99143786D01*
X95773435Y-99210920D01*
X95943635Y-99296278D01*
X96704165Y-98535748D01*
X96718307Y-98535748D01*
X97478837Y-99296278D01*
X97649037Y-99210920D01*
X97762737Y-99014990D01*
X97836028Y-98800644D01*
X97866094Y-98576118D01*
X97855743Y-98412634D01*
X102038764Y-98412634D01*
X102038764Y-98658862D01*
X102086801Y-98900359D01*
X102181029Y-99127845D01*
X102317826Y-99332576D01*
X102491936Y-99506686D01*
X102696667Y-99643483D01*
X102924153Y-99737711D01*
X103165650Y-99785748D01*
X103411878Y-99785748D01*
X103653375Y-99737711D01*
X103880861Y-99643483D01*
X104085592Y-99506686D01*
X104259702Y-99332576D01*
X104396499Y-99127845D01*
X104490727Y-98900359D01*
X104538764Y-98658862D01*
X104538764Y-98412634D01*
X104490727Y-98171137D01*
X104396499Y-97943651D01*
X104259702Y-97738920D01*
X104085592Y-97564810D01*
X103880861Y-97428013D01*
X103653375Y-97333785D01*
X103411878Y-97285748D01*
X103165650Y-97285748D01*
X102924153Y-97333785D01*
X102696667Y-97428013D01*
X102491936Y-97564810D01*
X102317826Y-97738920D01*
X102181029Y-97943651D01*
X102086801Y-98171137D01*
X102038764Y-98412634D01*
X97855743Y-98412634D01*
X97851779Y-98350041D01*
X97793635Y-98131100D01*
X97693894Y-97927710D01*
X97649037Y-97860576D01*
X97478837Y-97775218D01*
X96718307Y-98535748D01*
X96704165Y-98535748D01*
X95943635Y-97775218D01*
X95773435Y-97860576D01*
X95659735Y-98056506D01*
X95586444Y-98270852D01*
X95556378Y-98495378D01*
X95012006Y-98495378D01*
X95073465Y-98259345D01*
X95295500Y-97768147D01*
X95950706Y-97768147D01*
X96711236Y-98528677D01*
X97471766Y-97768147D01*
X97386408Y-97597947D01*
X97190478Y-97484247D01*
X96976132Y-97410956D01*
X96751606Y-97380890D01*
X96525529Y-97395205D01*
X96306588Y-97453349D01*
X96103198Y-97553090D01*
X96036064Y-97597947D01*
X95950706Y-97768147D01*
X95295500Y-97768147D01*
X95438501Y-97451794D01*
X95934763Y-96717551D01*
X96105867Y-96539024D01*
X97401416Y-96539024D01*
X97401416Y-96785252D01*
X97449453Y-97026749D01*
X97543681Y-97254235D01*
X97680478Y-97458966D01*
X97854588Y-97633076D01*
X98059319Y-97769873D01*
X98286805Y-97864101D01*
X98528302Y-97912138D01*
X98774530Y-97912138D01*
X99016027Y-97864101D01*
X99243513Y-97769873D01*
X99448244Y-97633076D01*
X99622354Y-97458966D01*
X99759151Y-97254235D01*
X99853379Y-97026749D01*
X99901416Y-96785252D01*
X99901416Y-96539024D01*
X100098584Y-96539024D01*
X100098584Y-96785252D01*
X100146621Y-97026749D01*
X100240849Y-97254235D01*
X100377646Y-97458966D01*
X100551756Y-97633076D01*
X100756487Y-97769873D01*
X100983973Y-97864101D01*
X101225470Y-97912138D01*
X101471698Y-97912138D01*
X101713195Y-97864101D01*
X101940681Y-97769873D01*
X102145412Y-97633076D01*
X102319522Y-97458966D01*
X102456319Y-97254235D01*
X102550547Y-97026749D01*
X102598584Y-96785252D01*
X102598584Y-96539024D01*
X102550547Y-96297527D01*
X102456319Y-96070041D01*
X102319522Y-95865310D01*
X102145412Y-95691200D01*
X101940681Y-95554403D01*
X101713195Y-95460175D01*
X101471698Y-95412138D01*
X101225470Y-95412138D01*
X100983973Y-95460175D01*
X100756487Y-95554403D01*
X100551756Y-95691200D01*
X100377646Y-95865310D01*
X100240849Y-96070041D01*
X100146621Y-96297527D01*
X100098584Y-96539024D01*
X99901416Y-96539024D01*
X99853379Y-96297527D01*
X99759151Y-96070041D01*
X99622354Y-95865310D01*
X99448244Y-95691200D01*
X99243513Y-95554403D01*
X99016027Y-95460175D01*
X98774530Y-95412138D01*
X98528302Y-95412138D01*
X98286805Y-95460175D01*
X98059319Y-95554403D01*
X97854588Y-95691200D01*
X97680478Y-95865310D01*
X97543681Y-96070041D01*
X97449453Y-96297527D01*
X97401416Y-96539024D01*
X96105867Y-96539024D01*
X96547975Y-96077737D01*
X97260494Y-95550760D01*
X98051825Y-95151780D01*
X98899201Y-94892274D01*
X99778245Y-94779708D01*
X100663668Y-94817320D01*
G37*
X100663668Y-94817320D02*
X101529999Y-95004029D01*
X102352315Y-95334462D01*
X103106958Y-95799115D01*
X103772221Y-96384619D01*
X104328963Y-97074132D01*
X104761169Y-97847816D01*
X105056405Y-98683415D01*
X105206177Y-99556889D01*
X105206177Y-100443111D01*
X105056405Y-101316585D01*
X104761169Y-102152184D01*
X104328963Y-102925868D01*
X103772221Y-103615381D01*
X103106958Y-104200885D01*
X102352315Y-104665538D01*
X101529999Y-104995971D01*
X100663668Y-105182680D01*
X99778245Y-105220292D01*
X98899201Y-105107726D01*
X98051825Y-104848220D01*
X97260494Y-104449240D01*
X96547975Y-103922263D01*
X95934763Y-103282449D01*
X95438501Y-102548206D01*
X95073465Y-101740655D01*
X94908777Y-101108159D01*
X95367107Y-101108159D01*
X95367107Y-101354387D01*
X95415144Y-101595884D01*
X95509372Y-101823370D01*
X95646169Y-102028101D01*
X95820279Y-102202211D01*
X96025010Y-102339008D01*
X96252496Y-102433236D01*
X96493993Y-102481273D01*
X96740221Y-102481273D01*
X96981718Y-102433236D01*
X97209204Y-102339008D01*
X97413935Y-102202211D01*
X97588045Y-102028101D01*
X97724842Y-101823370D01*
X97819070Y-101595884D01*
X97867107Y-101354387D01*
X97867107Y-101108159D01*
X102132893Y-101108159D01*
X102132893Y-101354387D01*
X102180930Y-101595884D01*
X102275158Y-101823370D01*
X102411955Y-102028101D01*
X102586065Y-102202211D01*
X102790796Y-102339008D01*
X103018282Y-102433236D01*
X103259779Y-102481273D01*
X103506007Y-102481273D01*
X103747504Y-102433236D01*
X103974990Y-102339008D01*
X104179721Y-102202211D01*
X104353831Y-102028101D01*
X104490628Y-101823370D01*
X104584856Y-101595884D01*
X104632893Y-101354387D01*
X104632893Y-101108159D01*
X104584856Y-100866662D01*
X104490628Y-100639176D01*
X104353831Y-100434445D01*
X104179721Y-100260335D01*
X103974990Y-100123538D01*
X103747504Y-100029310D01*
X103506007Y-99981273D01*
X103259779Y-99981273D01*
X103018282Y-100029310D01*
X102790796Y-100123538D01*
X102586065Y-100260335D01*
X102411955Y-100434445D01*
X102275158Y-100639176D01*
X102180930Y-100866662D01*
X102132893Y-101108159D01*
X97867107Y-101108159D01*
X97819070Y-100866662D01*
X97724842Y-100639176D01*
X97588045Y-100434445D01*
X97413935Y-100260335D01*
X97209204Y-100123538D01*
X96981718Y-100029310D01*
X96740221Y-99981273D01*
X96493993Y-99981273D01*
X96252496Y-100029310D01*
X96025010Y-100123538D01*
X95820279Y-100260335D01*
X95646169Y-100434445D01*
X95509372Y-100639176D01*
X95415144Y-100866662D01*
X95367107Y-101108159D01*
X94908777Y-101108159D01*
X94850157Y-100883029D01*
X94775000Y-100000000D01*
X94781974Y-99918056D01*
X99300000Y-99918056D01*
X99300000Y-100055944D01*
X99326901Y-100191182D01*
X99379668Y-100318574D01*
X99456274Y-100433224D01*
X99553776Y-100530726D01*
X99668426Y-100607332D01*
X99795818Y-100660099D01*
X99931056Y-100687000D01*
X100068944Y-100687000D01*
X100204182Y-100660099D01*
X100331574Y-100607332D01*
X100446224Y-100530726D01*
X100543726Y-100433224D01*
X100620332Y-100318574D01*
X100673099Y-100191182D01*
X100700000Y-100055944D01*
X100700000Y-99918056D01*
X100673099Y-99782818D01*
X100620332Y-99655426D01*
X100543726Y-99540776D01*
X100446224Y-99443274D01*
X100331574Y-99366668D01*
X100204182Y-99313901D01*
X100068944Y-99287000D01*
X99931056Y-99287000D01*
X99795818Y-99313901D01*
X99668426Y-99366668D01*
X99553776Y-99443274D01*
X99456274Y-99540776D01*
X99379668Y-99655426D01*
X99326901Y-99782818D01*
X99300000Y-99918056D01*
X94781974Y-99918056D01*
X94834293Y-99303349D01*
X95950706Y-99303349D01*
X96036064Y-99473549D01*
X96231994Y-99587249D01*
X96446340Y-99660540D01*
X96670866Y-99690606D01*
X96896943Y-99676291D01*
X97115884Y-99618147D01*
X97319274Y-99518406D01*
X97386408Y-99473549D01*
X97471766Y-99303349D01*
X96711236Y-98542819D01*
X95950706Y-99303349D01*
X94834293Y-99303349D01*
X94850157Y-99116971D01*
X95012006Y-98495378D01*
X95556378Y-98495378D01*
X95570693Y-98721455D01*
X95628837Y-98940396D01*
X95728578Y-99143786D01*
X95773435Y-99210920D01*
X95943635Y-99296278D01*
X96704165Y-98535748D01*
X96718307Y-98535748D01*
X97478837Y-99296278D01*
X97649037Y-99210920D01*
X97762737Y-99014990D01*
X97836028Y-98800644D01*
X97866094Y-98576118D01*
X97855743Y-98412634D01*
X102038764Y-98412634D01*
X102038764Y-98658862D01*
X102086801Y-98900359D01*
X102181029Y-99127845D01*
X102317826Y-99332576D01*
X102491936Y-99506686D01*
X102696667Y-99643483D01*
X102924153Y-99737711D01*
X103165650Y-99785748D01*
X103411878Y-99785748D01*
X103653375Y-99737711D01*
X103880861Y-99643483D01*
X104085592Y-99506686D01*
X104259702Y-99332576D01*
X104396499Y-99127845D01*
X104490727Y-98900359D01*
X104538764Y-98658862D01*
X104538764Y-98412634D01*
X104490727Y-98171137D01*
X104396499Y-97943651D01*
X104259702Y-97738920D01*
X104085592Y-97564810D01*
X103880861Y-97428013D01*
X103653375Y-97333785D01*
X103411878Y-97285748D01*
X103165650Y-97285748D01*
X102924153Y-97333785D01*
X102696667Y-97428013D01*
X102491936Y-97564810D01*
X102317826Y-97738920D01*
X102181029Y-97943651D01*
X102086801Y-98171137D01*
X102038764Y-98412634D01*
X97855743Y-98412634D01*
X97851779Y-98350041D01*
X97793635Y-98131100D01*
X97693894Y-97927710D01*
X97649037Y-97860576D01*
X97478837Y-97775218D01*
X96718307Y-98535748D01*
X96704165Y-98535748D01*
X95943635Y-97775218D01*
X95773435Y-97860576D01*
X95659735Y-98056506D01*
X95586444Y-98270852D01*
X95556378Y-98495378D01*
X95012006Y-98495378D01*
X95073465Y-98259345D01*
X95295500Y-97768147D01*
X95950706Y-97768147D01*
X96711236Y-98528677D01*
X97471766Y-97768147D01*
X97386408Y-97597947D01*
X97190478Y-97484247D01*
X96976132Y-97410956D01*
X96751606Y-97380890D01*
X96525529Y-97395205D01*
X96306588Y-97453349D01*
X96103198Y-97553090D01*
X96036064Y-97597947D01*
X95950706Y-97768147D01*
X95295500Y-97768147D01*
X95438501Y-97451794D01*
X95934763Y-96717551D01*
X96105867Y-96539024D01*
X97401416Y-96539024D01*
X97401416Y-96785252D01*
X97449453Y-97026749D01*
X97543681Y-97254235D01*
X97680478Y-97458966D01*
X97854588Y-97633076D01*
X98059319Y-97769873D01*
X98286805Y-97864101D01*
X98528302Y-97912138D01*
X98774530Y-97912138D01*
X99016027Y-97864101D01*
X99243513Y-97769873D01*
X99448244Y-97633076D01*
X99622354Y-97458966D01*
X99759151Y-97254235D01*
X99853379Y-97026749D01*
X99901416Y-96785252D01*
X99901416Y-96539024D01*
X100098584Y-96539024D01*
X100098584Y-96785252D01*
X100146621Y-97026749D01*
X100240849Y-97254235D01*
X100377646Y-97458966D01*
X100551756Y-97633076D01*
X100756487Y-97769873D01*
X100983973Y-97864101D01*
X101225470Y-97912138D01*
X101471698Y-97912138D01*
X101713195Y-97864101D01*
X101940681Y-97769873D01*
X102145412Y-97633076D01*
X102319522Y-97458966D01*
X102456319Y-97254235D01*
X102550547Y-97026749D01*
X102598584Y-96785252D01*
X102598584Y-96539024D01*
X102550547Y-96297527D01*
X102456319Y-96070041D01*
X102319522Y-95865310D01*
X102145412Y-95691200D01*
X101940681Y-95554403D01*
X101713195Y-95460175D01*
X101471698Y-95412138D01*
X101225470Y-95412138D01*
X100983973Y-95460175D01*
X100756487Y-95554403D01*
X100551756Y-95691200D01*
X100377646Y-95865310D01*
X100240849Y-96070041D01*
X100146621Y-96297527D01*
X100098584Y-96539024D01*
X99901416Y-96539024D01*
X99853379Y-96297527D01*
X99759151Y-96070041D01*
X99622354Y-95865310D01*
X99448244Y-95691200D01*
X99243513Y-95554403D01*
X99016027Y-95460175D01*
X98774530Y-95412138D01*
X98528302Y-95412138D01*
X98286805Y-95460175D01*
X98059319Y-95554403D01*
X97854588Y-95691200D01*
X97680478Y-95865310D01*
X97543681Y-96070041D01*
X97449453Y-96297527D01*
X97401416Y-96539024D01*
X96105867Y-96539024D01*
X96547975Y-96077737D01*
X97260494Y-95550760D01*
X98051825Y-95151780D01*
X98899201Y-94892274D01*
X99778245Y-94779708D01*
X100663668Y-94817320D01*
M02*
